<?xml version="1.0" encoding="UTF-8"?>
<svg version="1.1" xmlns="http://www.w3.org/2000/svg" width="30" height="30">
<path d="M0 0 C0.66666667 1.66666667 1.33333333 3.33333333 2 5 C4.97980236 5.74664647 4.97980236 5.74664647 8 6 C10 8 10 8 10.3125 10.875 C9.96086398 14.39136024 9.05398497 15.26135338 7 18 C6.95919217 19.99958364 6.95745644 22.00045254 7 24 C6.34 24.99 5.68 25.98 5 27 C1.40153974 27.31290959 -1.53573133 26.86606717 -5 26 C-5.66 26.33 -6.32 26.66 -7 27 C-10 27.25 -10 27.25 -13 27 C-15 24 -15 24 -14.9375 21.0625 C-14.70218786 17.99183843 -14.70218786 17.99183843 -16.5 16 C-18 14 -18 14 -18.5 10.9375 C-18 8 -18 8 -15.6875 6.125 C-13 5 -13 5 -10 5 C-9.71125 4.195625 -9.4225 3.39125 -9.125 2.5625 C-7.11674155 -2.01186648 -4.39120871 -1.28076921 0 0 Z " fill="#C8A2C8" transform="translate(19,2)"/>
<path d="M0 0 C0.66666667 1.66666667 1.33333333 3.33333333 2 5 C4.97980236 5.74664647 4.97980236 5.74664647 8 6 C10 8 10 8 10.3125 10.875 C9.96086398 14.39136024 9.05398497 15.26135338 7 18 C6.95919217 19.99958364 6.95745644 22.00045254 7 24 C6.34 24.99 5.68 25.98 5 27 C1.40153974 27.31290959 -1.53573133 26.86606717 -5 26 C-5.66 26.33 -6.32 26.66 -7 27 C-10 27.25 -10 27.25 -13 27 C-15 24 -15 24 -14.9375 21.0625 C-14.70218786 17.99183843 -14.70218786 17.99183843 -16.5 16 C-18 14 -18 14 -18.5 10.9375 C-18 8 -18 8 -15.6875 6.125 C-13 5 -13 5 -10 5 C-9.71125 4.195625 -9.4225 3.39125 -9.125 2.5625 C-7.11674155 -2.01186648 -4.39120871 -1.28076921 0 0 Z M-6 1 C-8.34287418 3.67247634 -8.34287418 3.67247634 -9 7 C-11.31 7.33 -13.62 7.66 -16 8 C-16.76956136 10.34533951 -16.76956136 10.34533951 -17 13 C-16.319375 13.6496875 -16.319375 13.6496875 -15.625 14.3125 C-12.98604052 17.05295792 -13.35973121 20.2827775 -13 24 C-11.90410595 25.3263016 -11.90410595 25.3263016 -9.1875 25.0625 C-7.6096875 25.0315625 -7.6096875 25.0315625 -6 25 C-3.60407609 25 -1.20796347 25.01553013 1.1875 25.0625 C3.90410595 25.3263016 3.90410595 25.3263016 5 24 C5.12375 22.741875 5.2475 21.48375 5.375 20.1875 C5.76347716 16.55523856 6.73841163 14.8783852 9 12 C8.78282648 9.79199472 8.78282648 9.79199472 8 8 C5.69 7.67 3.38 7.34 1 7 C0.6596875 5.7934375 0.6596875 5.7934375 0.3125 4.5625 C-0.120625 3.716875 -0.55375 2.87125 -1 2 C-3.54775306 1.10613836 -3.54775306 1.10613836 -6 1 Z " fill="#C8A2C8" transform="translate(19,2)"/>
<path d="M0 0 C0.66 0 1.32 0 2 0 C2 0.99 2 1.98 2 3 C2.99 3.33 3.98 3.66 5 4 C4.67 5.32 4.34 6.64 4 8 C3.34 8 2.68 8 2 8 C2 7.34 2 6.68 2 6 C1.34 6 0.68 6 0 6 C0 6.66 0 7.32 0 8 C-0.66 7.67 -1.32 7.34 -2 7 C-2.625 4.9375 -2.625 4.9375 -3 3 C-2.01 3 -1.02 3 0 3 C0 2.01 0 1.02 0 0 Z " fill="#C8A2C8" transform="translate(14,11)"/>
</svg>

